<svg viewBox="0 0 1024 1024" version="1.1" xmlns="http://www.w3.org/2000/svg" >
    <path d="M384 384m-384 0a384 384 0 1 0 768 0 384 384 0 1 0-768 0Z" fill="#90E8B5"/>
    <path d="M390.4 352a140.448 140.448 0 0 0 105.6 135.872v251.328a176 176 0 0 0 352 0V563.2L672 739.2h105.6c0 58.3232-47.2768 105.6-105.6 105.6s-105.6-47.2768-105.6-105.6V487.872C628.704 471.68 672 415.36 672 350.944 672 273.152 608.64 211.2 531.2 211.2c-78.144 0-140.8 63.008-140.8 140.8m140.8 70.4a70.4 70.4 0 1 1 0-140.8c38.88 0 70.4 31.52 70.4 70.4s-31.52 70.4-70.4 70.4z" fill="#000000" />
</svg>